# Free SolidWorks .OBJ Exporter v2.0
# num_vertices: 36 

mtllib One.mtl

v 1.11171471953451E-02 0.01 0
v 0 0.01 0
v 0 0 0
v 1.11171471953451E-02 0 0
v 1.11171471953451E-02 0.01 -0.05
v 1.11171471953451E-02 0.01 0
v 1.11171471953451E-02 0 0
v 1.11171471953451E-02 0 -0.05
v -7.81274169258128E-03 0.01 -4.25926521742896E-02
v 1.11171471953451E-02 0.01 -0.05
v 1.11171471953451E-02 0 -0.05
v -7.81274169258128E-03 0 -4.25926521742896E-02
v 1.11171471953451E-02 0.01 0
v 1.11171471953451E-02 0.01 -0.05
v 0 0.01 -3.56498119670388E-02
v -7.81274169258128E-03 0.01 -4.25926521742896E-02
v -7.81274169258128E-03 0.01 -3.25926521742896E-02
v 0 0.01 0
v -7.81274169258128E-03 0 -4.25926521742896E-02
v 1.11171471953451E-02 0 -0.05
v 0 0 -3.56498119670388E-02
v 1.11171471953451E-02 0 0
v 0 0 0
v -7.81274169258128E-03 0 -3.25926521742896E-02
v -7.81274169258128E-03 0.01 -3.25926521742896E-02
v -7.81274169258128E-03 0.01 -4.25926521742896E-02
v -7.81274169258128E-03 0 -4.25926521742896E-02
v -7.81274169258128E-03 0 -3.25926521742896E-02
v 0 0.01 -3.56498119670388E-02
v -7.81274169258128E-03 0.01 -3.25926521742896E-02
v -7.81274169258128E-03 0 -3.25926521742896E-02
v 0 0 -3.56498119670388E-02
v 0 0.01 0
v 0 0.01 -3.56498119670388E-02
v 0 0 -3.56498119670388E-02
v 0 0 0
# 36 vertices

vn -0 -0 1
vn -0 -0 1
vn -0 -0 1
vn -0 -0 1
vn 1 -0 -0
vn 1 -0 -0
vn 1 -0 -0
vn 1 -0 -0
vn -0.364399348580514 0 -0.931242779705753
vn -0.364399348580514 0 -0.931242779705753
vn -0.364399348580514 0 -0.931242779705753
vn -0.364399348580514 0 -0.931242779705753
vn -0 1 0
vn -0 1 0
vn -0 1 0
vn -0 1 0
vn -0 1 0
vn -0 1 0
vn -0 -1 -0
vn -0 -1 -0
vn -0 -1 -0
vn -0 -1 -0
vn -0 -1 -0
vn -0 -1 -0
vn -1 0 -0
vn -1 0 -0
vn -1 0 -0
vn -1 0 -0
vn 0.364399348580514 -0 0.931242779705753
vn 0.364399348580514 -0 0.931242779705753
vn 0.364399348580514 -0 0.931242779705753
vn 0.364399348580514 -0 0.931242779705753
vn -1 0 -0
vn -1 0 -0
vn -1 0 -0
vn -1 0 -0
# 36 normals

vt 0 0
vt 1.11171471953451E-02 0
vt 1.11171471953451E-02 -0.01
vt 0 -0.01
vt 0 0
vt 0.05 0
vt 0.05 -0.01
vt 0 -0.01
vt 0 0
vt 2.03275550699118E-02 0
vt 2.03275550699118E-02 -0.01
vt 0 -0.01
vt 0 1.11171471953451E-02
vt 0.05 1.11171471953451E-02
vt 3.56498119670388E-02 0
vt 4.25926521742896E-02 -7.81274169258128E-03
vt 3.25926521742896E-02 -7.81274169258128E-03
vt 0 0
vt 4.25926521742896E-02 -7.81274169258128E-03
vt 0.05 1.11171471953451E-02
vt 3.56498119670388E-02 0
vt 0 1.11171471953451E-02
vt 0 0
vt 3.25926521742896E-02 -7.81274169258128E-03
vt 0 0
vt 0.01 0
vt 0.01 -0.01
vt 0 -0.01
vt 0 0
vt 8.38958632790677E-03 0
vt 8.38958632790677E-03 -0.01
vt 0 -0.01
vt 0 0
vt 3.56498119670388E-02 0
vt 3.56498119670388E-02 -0.01
vt 0 -0.01
# 36 UVs

g  mesh 1 
usemtl  1 
f 3/3/3 1/1/1 2/2/2
f 1/1/1 3/3/3 4/4/4
f 7/7/7 5/5/5 6/6/6
f 5/5/5 7/7/7 8/8/8
f 11/11/11 9/9/9 10/10/10
f 9/9/9 11/11/11 12/12/12
f 27/27/27 25/25/25 26/26/26
f 25/25/25 27/27/27 28/28/28
f 29/29/29 31/31/31 32/32/32
f 31/31/31 29/29/29 30/30/30
f 35/35/35 33/33/33 34/34/34
f 33/33/33 35/35/35 36/36/36
f 16/16/16 15/15/15 14/14/14
f 15/15/15 16/16/16 17/17/17
f 15/15/15 13/13/13 14/14/14
f 13/13/13 15/15/15 18/18/18
f 22/22/22 21/21/21 20/20/20
f 21/21/21 22/22/22 23/23/23
f 21/21/21 19/19/19 20/20/20
f 19/19/19 21/21/21 24/24/24

