# Free SolidWorks .OBJ Exporter v2.0
# num_vertices: 136 

mtllib indicator.mtl

v 0.06 0.0005 0
v 0.06 0.0005 0.002
v 0.06 -0.0005 0.002
v 0.06 -0.0005 0
v 0.058517638090205 2.43185165257814E-03 0.002
v 0.058517638090205 2.43185165257814E-03 0
v 0.058 0.0025 0
v 0.059 2.23205080756888E-03 0.002
v 0.059 2.23205080756888E-03 0
v 5.94142135623731E-02 1.9142135623731E-03 0.002
v 5.94142135623731E-02 1.9142135623731E-03 0
v 5.97320508075689E-02 0.0015 0.002
v 5.97320508075689E-02 0.0015 0
v 5.99318516525781E-02 1.01763809020504E-03 0.002
v 5.99318516525781E-02 1.01763809020504E-03 0
v 0.06 0.0005 0.002
v 0.06 0.0005 0
v 0.058 0.0025 0.002
v 0.058 0.0025 0.002
v 0.058 0.0025 0
v 6.93889390390723E-18 0.0025 0
v 6.93889390390723E-18 0.0025 0.002
v -0.058 0.0025 0
v -0.058 0.0025 0.002
v 5.99318516525781E-02 -1.01763809020504E-03 0.002
v 5.99318516525781E-02 -1.01763809020504E-03 0
v 0.06 -0.0005 0
v 5.97320508075689E-02 -0.0015 0.002
v 5.97320508075689E-02 -0.0015 0
v 5.94142135623731E-02 -1.91421356237309E-03 0.002
v 5.94142135623731E-02 -1.91421356237309E-03 0
v 0.059 -2.23205080756888E-03 0.002
v 0.059 -2.23205080756888E-03 0
v 0.058517638090205 -2.43185165257814E-03 0.002
v 0.058517638090205 -2.43185165257814E-03 0
v 0.058 -0.0025 0.002
v 0.058 -0.0025 0
v 0.06 -0.0005 0.002
v 0.058 -0.0025 0
v 0.058 -0.0025 0.002
v 6.93889390390723E-18 -0.0025 0.002
v 6.93889390390723E-18 -0.0025 0
v -0.058 -0.0025 0.002
v -0.058 -0.0025 0
v -5.99318516525781E-02 -1.01763809020504E-03 0.002
v -0.059 -2.23205080756888E-03 0.002
v -0.058517638090205 -2.43185165257814E-03 0.002
v -5.97320508075689E-02 -0.0015 0.002
v -5.94142135623731E-02 -1.91421356237309E-03 0.002
v -5.99318516525781E-02 1.01763809020504E-03 0.002
v -0.059 2.23205080756888E-03 0.002
v -5.94142135623731E-02 1.91421356237309E-03 0.002
v -0.058517638090205 2.43185165257814E-03 0.002
v -0.058 -0.0025 0.002
v -0.06 -0.0005 0.002
v -0.058 0.0025 0.002
v -0.06 0.0005 0.002
v -5.97320508075689E-02 0.0015 0.002
v 6.93889390390723E-18 0.0025 0.002
v 5.99318516525781E-02 -1.01763809020504E-03 0.002
v 0.059 -2.23205080756888E-03 0.002
v 5.94142135623731E-02 -1.91421356237309E-03 0.002
v 0.058 -0.0025 0.002
v 0.058517638090205 -2.43185165257814E-03 0.002
v 5.99318516525781E-02 1.01763809020504E-03 0.002
v 0.059 2.23205080756888E-03 0.002
v 0.058517638090205 2.43185165257814E-03 0.002
v 5.97320508075689E-02 0.0015 0.002
v 5.94142135623731E-02 1.9142135623731E-03 0.002
v 0.058 0.0025 0.002
v 0.06 -0.0005 0.002
v 5.97320508075689E-02 -0.0015 0.002
v 0.06 0.0005 0.002
v 6.93889390390723E-18 -0.0025 0.002
v 5.99318516525781E-02 -1.01763809020504E-03 0
v 0.059 -2.23205080756888E-03 0
v 0.058517638090205 -2.43185165257814E-03 0
v 5.97320508075689E-02 -0.0015 0
v 5.94142135623731E-02 -1.91421356237309E-03 0
v 5.99318516525781E-02 1.01763809020504E-03 0
v 0.059 2.23205080756888E-03 0
v 5.94142135623731E-02 1.9142135623731E-03 0
v 0.058 0.0025 0
v 0.058517638090205 2.43185165257814E-03 0
v 0.058 -0.0025 0
v 0.06 -0.0005 0
v 0.06 0.0005 0
v 5.97320508075689E-02 0.0015 0
v 6.93889390390723E-18 0.0025 0
v -5.99318516525781E-02 1.01763809020504E-03 0
v -0.059 2.23205080756888E-03 0
v -0.058517638090205 2.43185165257814E-03 0
v -5.97320508075689E-02 0.0015 0
v -5.94142135623731E-02 1.91421356237309E-03 0
v -5.99318516525781E-02 -1.01763809020504E-03 0
v -0.059 -2.23205080756888E-03 0
v -5.94142135623731E-02 -1.91421356237309E-03 0
v -0.058517638090205 -2.43185165257814E-03 0
v -0.058 0.0025 0
v -0.06 0.0005 0
v -0.058 -0.0025 0
v -0.06 -0.0005 0
v -5.97320508075689E-02 -0.0015 0
v 6.93889390390723E-18 -0.0025 0
v -0.06 0.0005 0.002
v -0.06 0.0005 0
v -0.06 -0.0005 0
v -0.06 -0.0005 0.002
v -5.99318516525781E-02 1.01763809020504E-03 0.002
v -5.99318516525781E-02 1.01763809020504E-03 0
v -0.06 0.0005 0
v -5.97320508075689E-02 0.0015 0.002
v -5.97320508075689E-02 0.0015 0
v -5.94142135623731E-02 1.91421356237309E-03 0.002
v -5.94142135623731E-02 1.91421356237309E-03 0
v -0.059 2.23205080756888E-03 0.002
v -0.059 2.23205080756888E-03 0
v -0.058517638090205 2.43185165257814E-03 0.002
v -0.058517638090205 2.43185165257814E-03 0
v -0.058 0.0025 0.002
v -0.058 0.0025 0
v -0.06 0.0005 0.002
v -0.058517638090205 -2.43185165257814E-03 0.002
v -0.058517638090205 -2.43185165257814E-03 0
v -0.058 -0.0025 0
v -0.059 -2.23205080756888E-03 0.002
v -0.059 -2.23205080756888E-03 0
v -5.94142135623731E-02 -1.91421356237309E-03 0.002
v -5.94142135623731E-02 -1.91421356237309E-03 0
v -5.97320508075689E-02 -0.0015 0.002
v -5.97320508075689E-02 -0.0015 0
v -5.99318516525781E-02 -1.01763809020504E-03 0.002
v -5.99318516525781E-02 -1.01763809020504E-03 0
v -0.06 -0.0005 0.002
v -0.06 -0.0005 0
v -0.058 -0.0025 0.002
# 136 vertices

vn 1 0 0
vn 1 0 0
vn 1 0 0
vn 1 0 0
vn 0.25881904510252 0.965925826289069 0
vn 0.25881904510252 0.965925826289069 0
vn -6.12323399573677E-17 1 0
vn 0.5 0.866025403784438 0
vn 0.5 0.866025403784438 0
vn 0.707106781186548 0.707106781186547 0
vn 0.707106781186548 0.707106781186547 0
vn 0.866025403784439 0.5 0
vn 0.866025403784439 0.5 0
vn 0.965925826289068 0.258819045102521 0
vn 0.965925826289068 0.258819045102521 0
vn 1 1.22464679914735E-16 0
vn 1 1.22464679914735E-16 0
vn -6.12323399573677E-17 1 0
vn -6.12323399573677E-17 1 0
vn -6.12323399573677E-17 1 0
vn -6.12323399573677E-17 1 0
vn -6.12323399573677E-17 1 0
vn -6.12323399573677E-17 1 0
vn -6.12323399573677E-17 1 0
vn 0.965925826289068 -0.25881904510252 0
vn 0.965925826289068 -0.25881904510252 0
vn 1 1.22464679914735E-16 0
vn 0.866025403784439 -0.499999999999999 0
vn 0.866025403784439 -0.499999999999999 0
vn 0.707106781186548 -0.707106781186547 0
vn 0.707106781186548 -0.707106781186547 0
vn 0.500000000000001 -0.866025403784438 0
vn 0.500000000000001 -0.866025403784438 0
vn 0.25881904510252 -0.965925826289069 0
vn 0.25881904510252 -0.965925826289069 0
vn 1.83697019872103E-16 -1 0
vn 1.83697019872103E-16 -1 0
vn 1 1.22464679914735E-16 0
vn 1.83697019872103E-16 -1 0
vn 1.83697019872103E-16 -1 0
vn 1.83697019872103E-16 -1 0
vn 1.83697019872103E-16 -1 0
vn 1.83697019872103E-16 -1 0
vn 1.83697019872103E-16 -1 0
vn 0 0 1
vn 0 0 1
vn 0 0 1
vn 0 0 1
vn 0 0 1
vn 0 0 1
vn 0 0 1
vn 0 0 1
vn 0 0 1
vn 0 0 1
vn 0 0 1
vn 0 0 1
vn 0 0 1
vn 0 0 1
vn 0 0 1
vn 0 0 1
vn 0 0 1
vn 0 0 1
vn 0 0 1
vn 0 0 1
vn 0 0 1
vn 0 0 1
vn 0 0 1
vn 0 0 1
vn 0 0 1
vn 0 0 1
vn 0 0 1
vn 0 0 1
vn 0 0 1
vn 0 0 1
vn 0 0 -1
vn 0 0 -1
vn 0 0 -1
vn 0 0 -1
vn 0 0 -1
vn 0 0 -1
vn 0 0 -1
vn 0 0 -1
vn 0 0 -1
vn 0 0 -1
vn 0 0 -1
vn 0 0 -1
vn 0 0 -1
vn 0 0 -1
vn 0 0 -1
vn 0 0 -1
vn 0 0 -1
vn 0 0 -1
vn 0 0 -1
vn 0 0 -1
vn 0 0 -1
vn 0 0 -1
vn 0 0 -1
vn 0 0 -1
vn 0 0 -1
vn 0 0 -1
vn 0 0 -1
vn 0 0 -1
vn 0 0 -1
vn 0 0 -1
vn -1 0 0
vn -1 0 0
vn -1 0 0
vn -1 0 0
vn -0.965925826289068 0.258819045102521 0
vn -0.965925826289068 0.258819045102521 0
vn -1 0 0
vn -0.866025403784439 0.5 0
vn -0.866025403784439 0.5 0
vn -0.707106781186548 0.707106781186547 0
vn -0.707106781186548 0.707106781186547 0
vn -0.5 0.866025403784438 0
vn -0.5 0.866025403784438 0
vn -0.258819045102519 0.965925826289069 0
vn -0.258819045102519 0.965925826289069 0
vn -6.12323399573677E-17 1 0
vn -6.12323399573677E-17 1 0
vn -1 0 0
vn -0.258819045102519 -0.965925826289069 0
vn -0.258819045102519 -0.965925826289069 0
vn 1.83697019872103E-16 -1 0
vn -0.5 -0.866025403784438 0
vn -0.5 -0.866025403784438 0
vn -0.707106781186548 -0.707106781186547 0
vn -0.707106781186548 -0.707106781186547 0
vn -0.866025403784439 -0.5 0
vn -0.866025403784439 -0.5 0
vn -0.965925826289068 -0.258819045102522 0
vn -0.965925826289068 -0.258819045102522 0
vn -1 -2.44929359829471E-16 0
vn -1 -2.44929359829471E-16 0
vn 1.83697019872103E-16 -1 0
# 136 normals

vt -0.002 -0.002
vt 0 -0.002
vt 0 -0.003
vt -0.002 -0.003
vt 1.83259571459404 0
vt 1.83259571459404 0.002
vt 1.5707963267949 0.002
vt 2.0943951023932 0
vt 2.0943951023932 0.002
vt 2.35619449019235 0
vt 2.35619449019235 0.002
vt 2.61799387799149 0
vt 2.61799387799149 0.002
vt 2.87979326579064 0
vt 2.87979326579064 0.002
vt 3.14159265358979 0
vt 3.14159265358979 0.002
vt 1.5707963267949 0
vt 0 0.118
vt 0.002 0.118
vt 0.002 0.06
vt 0 0.06
vt 0.002 0.002
vt 0 0.002
vt 3.40339204138894 0
vt 3.40339204138894 0.002
vt 3.14159265358979 0.002
vt 3.66519142918809 0
vt 3.66519142918809 0.002
vt 3.92699081698724 0
vt 3.92699081698724 0.002
vt 4.18879020478639 0
vt 4.18879020478639 0.002
vt 4.45058959258554 0
vt 4.45058959258554 0.002
vt 4.71238898038469 0
vt 4.71238898038469 0.002
vt 3.14159265358979 0
vt -0.002 0.118
vt 0 0.118
vt 0 0.06
vt -0.002 0.06
vt 0 0.002
vt -0.002 0.002
vt -5.99318516525781E-02 -1.01763809020504E-03
vt -0.059 -2.23205080756888E-03
vt -0.058517638090205 -2.43185165257814E-03
vt -5.97320508075689E-02 -0.0015
vt -5.94142135623731E-02 -1.91421356237309E-03
vt -5.99318516525781E-02 1.01763809020504E-03
vt -0.059 2.23205080756888E-03
vt -5.94142135623731E-02 1.91421356237309E-03
vt -0.058517638090205 2.43185165257814E-03
vt -0.058 -0.0025
vt -0.06 -0.0005
vt -0.058 0.0025
vt -0.06 0.0005
vt -5.97320508075689E-02 0.0015
vt 6.93889390390723E-18 0.0025
vt 5.99318516525781E-02 -1.01763809020504E-03
vt 0.059 -2.23205080756888E-03
vt 5.94142135623731E-02 -1.91421356237309E-03
vt 0.058 -0.0025
vt 0.058517638090205 -2.43185165257814E-03
vt 5.99318516525781E-02 1.01763809020504E-03
vt 0.059 2.23205080756888E-03
vt 0.058517638090205 2.43185165257814E-03
vt 5.97320508075689E-02 0.0015
vt 5.94142135623731E-02 1.9142135623731E-03
vt 0.058 0.0025
vt 0.06 -4.99999999999999E-04
vt 5.97320508075689E-02 -0.0015
vt 0.06 5.00000000000001E-04
vt 6.93889390390723E-18 -0.0025
vt 5.99318516525781E-02 -1.01763809020504E-03
vt 0.059 -2.23205080756888E-03
vt 0.058517638090205 -2.43185165257814E-03
vt 5.97320508075689E-02 -0.0015
vt 5.94142135623731E-02 -1.91421356237309E-03
vt 5.99318516525781E-02 1.01763809020504E-03
vt 0.059 2.23205080756888E-03
vt 5.94142135623731E-02 1.9142135623731E-03
vt 0.058 0.0025
vt 0.058517638090205 2.43185165257814E-03
vt 0.058 -0.0025
vt 0.06 -4.99999999999999E-04
vt 0.06 0.0005
vt 5.97320508075689E-02 0.0015
vt 6.93889390390723E-18 0.0025
vt -5.99318516525781E-02 1.01763809020504E-03
vt -0.059 2.23205080756888E-03
vt -0.058517638090205 2.43185165257814E-03
vt -5.97320508075689E-02 0.0015
vt -5.94142135623731E-02 1.91421356237309E-03
vt -5.99318516525781E-02 -1.01763809020504E-03
vt -0.059 -2.23205080756888E-03
vt -5.94142135623731E-02 -1.91421356237309E-03
vt -0.058517638090205 -2.43185165257814E-03
vt -0.058 0.0025
vt -0.06 0.0005
vt -0.058 -0.0025
vt -0.06 -0.0005
vt -5.97320508075689E-02 -0.0015
vt 6.93889390390723E-18 -0.0025
vt 0 -0.002
vt 0.002 -0.002
vt 0.002 -0.003
vt 0 -0.003
vt 0.26179938779915 0
vt 0.26179938779915 0.002
vt 0 0.002
vt 0.523598775598298 0
vt 0.523598775598298 0.002
vt 0.785398163397448 0
vt 0.785398163397448 0.002
vt 1.0471975511966 0
vt 1.0471975511966 0.002
vt 1.30899693899575 0
vt 1.30899693899575 0.002
vt 1.5707963267949 0
vt 1.5707963267949 0.002
vt 0 0
vt 4.97418836818384 0
vt 4.97418836818384 0.002
vt 4.71238898038469 0.002
vt 5.23598775598299 0
vt 5.23598775598299 0.002
vt 5.49778714378214 0
vt 5.49778714378214 0.002
vt 5.75958653158129 0
vt 5.75958653158129 0.002
vt 6.02138591938044 0
vt 6.02138591938044 0.002
vt 6.28318530717959 0
vt 6.28318530717959 0.002
vt 4.71238898038469 0
# 136 UVs

g  mesh 1 indicator
usemtl  1 
f 1/1/1 3/3/3 4/4/4
f 3/3/3 1/1/1 2/2/2
f 22/22/22 23/23/23 24/24/24
f 23/23/23 22/22/22 21/21/21
f 19/19/19 21/21/21 22/22/22
f 21/21/21 19/19/19 20/20/20
f 105/105/105 107/107/107 108/108/108
f 107/107/107 105/105/105 106/106/106
f 42/42/42 43/43/43 44/44/44
f 39/39/39 41/41/41 42/42/42
f 41/41/41 39/39/39 40/40/40
f 43/43/43 42/42/42 41/41/41
f 70/70/70 71/71/71 73/73/73
f 59/59/59 54/54/54 74/74/74
f 74/74/74 70/70/70 59/59/59
f 65/65/65 67/67/67 70/70/70
f 70/70/70 74/74/74 63/63/63
f 63/63/63 60/60/60 71/71/71
f 65/65/65 70/70/70 73/73/73
f 60/60/60 62/62/62 72/72/72
f 71/71/71 70/70/70 63/63/63
f 65/65/65 69/69/69 66/66/66
f 60/60/60 64/64/64 61/61/61
f 69/69/69 65/65/65 68/68/68
f 67/67/67 65/65/65 66/66/66
f 64/64/64 60/60/60 63/63/63
f 62/62/62 60/60/60 61/61/61
f 45/45/45 47/47/47 54/54/54
f 56/56/56 50/50/50 57/57/57
f 54/54/54 59/59/59 56/56/56
f 50/50/50 52/52/52 58/58/58
f 54/54/54 57/57/57 55/55/55
f 53/53/53 50/50/50 56/56/56
f 57/57/57 54/54/54 56/56/56
f 45/45/45 54/54/54 55/55/55
f 51/51/51 50/50/50 53/53/53
f 45/45/45 49/49/49 46/46/46
f 52/52/52 50/50/50 51/51/51
f 49/49/49 45/45/45 48/48/48
f 47/47/47 45/45/45 46/46/46
f 80/80/80 84/84/84 81/81/81
f 87/87/87 85/85/85 83/83/83
f 84/84/84 80/80/80 83/83/83
f 82/82/82 80/80/80 81/81/81
f 75/75/75 79/79/79 76/76/76
f 79/79/79 75/75/75 78/78/78
f 85/85/85 87/87/87 86/86/86
f 80/80/80 82/82/82 88/88/88
f 85/85/85 89/89/89 83/83/83
f 83/83/83 80/80/80 87/87/87
f 75/75/75 77/77/77 85/85/85
f 92/92/92 90/90/90 91/91/91
f 94/94/94 90/90/90 93/93/93
f 97/97/97 95/95/95 96/96/96
f 90/90/90 94/94/94 91/91/91
f 96/96/96 95/95/95 98/98/98
f 77/77/77 75/75/75 76/76/76
f 89/89/89 85/85/85 104/104/104
f 104/104/104 99/99/99 89/89/89
f 90/90/90 92/92/92 99/99/99
f 90/90/90 99/99/99 100/100/100
f 102/102/102 99/99/99 101/101/101
f 98/98/98 95/95/95 101/101/101
f 99/99/99 102/102/102 100/100/100
f 95/95/95 97/97/97 103/103/103
f 99/99/99 104/104/104 101/101/101
f 101/101/101 95/95/95 102/102/102
f 75/75/75 85/85/85 86/86/86
f 5/5/5 7/7/7 18/18/18
f 6/6/6 8/8/8 9/9/9
f 9/9/9 10/10/10 11/11/11
f 11/11/11 12/12/12 13/13/13
f 13/13/13 14/14/14 15/15/15
f 15/15/15 16/16/16 17/17/17
f 16/16/16 15/15/15 14/14/14
f 14/14/14 13/13/13 12/12/12
f 12/12/12 11/11/11 10/10/10
f 10/10/10 9/9/9 8/8/8
f 8/8/8 6/6/6 5/5/5
f 7/7/7 5/5/5 6/6/6
f 27/27/27 25/25/25 26/26/26
f 26/26/26 28/28/28 29/29/29
f 29/29/29 30/30/30 31/31/31
f 31/31/31 32/32/32 33/33/33
f 33/33/33 34/34/34 35/35/35
f 35/35/35 36/36/36 37/37/37
f 36/36/36 35/35/35 34/34/34
f 34/34/34 33/33/33 32/32/32
f 32/32/32 31/31/31 30/30/30
f 30/30/30 29/29/29 28/28/28
f 28/28/28 26/26/26 25/25/25
f 25/25/25 27/27/27 38/38/38
f 111/111/111 109/109/109 110/110/110
f 110/110/110 112/112/112 113/113/113
f 113/113/113 114/114/114 115/115/115
f 115/115/115 116/116/116 117/117/117
f 117/117/117 118/118/118 119/119/119
f 119/119/119 120/120/120 121/121/121
f 120/120/120 119/119/119 118/118/118
f 118/118/118 117/117/117 116/116/116
f 116/116/116 115/115/115 114/114/114
f 114/114/114 113/113/113 112/112/112
f 112/112/112 110/110/110 109/109/109
f 109/109/109 111/111/111 122/122/122
f 125/125/125 123/123/123 124/124/124
f 124/124/124 126/126/126 127/127/127
f 127/127/127 128/128/128 129/129/129
f 129/129/129 130/130/130 131/131/131
f 131/131/131 132/132/132 133/133/133
f 133/133/133 134/134/134 135/135/135
f 134/134/134 133/133/133 132/132/132
f 132/132/132 131/131/131 130/130/130
f 130/130/130 129/129/129 128/128/128
f 128/128/128 127/127/127 126/126/126
f 126/126/126 124/124/124 123/123/123
f 123/123/123 125/125/125 136/136/136

