# Free SolidWorks .OBJ Exporter v2.0
# num_vertices: 65 

mtllib support.mtl

v -9.69669914110086E-02 0.075 0.123033008588991
v -9.69669914110086E-02 0.075 6.15165042944954E-02
v -9.69669914110086E-02 0 6.15165042944954E-02
v -9.69669914110086E-02 0.075 0
v -9.69669914110086E-02 0 0
v -9.69669914110086E-02 0 0.123033008588991
v -9.69669914110086E-02 -0.075 6.15165042944954E-02
v -9.69669914110086E-02 -0.075 0
v -9.69669914110086E-02 -0.075 0.123033008588991
v -5.30330085889914E-02 0.075 0.123033008588991
v -9.69669914110086E-02 0.075 0.123033008588991
v -9.69669914110086E-02 0 0.123033008588991
v -5.30330085889914E-02 0 0.123033008588991
v -9.69669914110086E-02 -0.075 0.123033008588991
v -5.30330085889914E-02 -0.075 0.123033008588991
v -9.69669914110086E-02 0.075 0
v -9.69669914110086E-02 0.075 6.15165042944954E-02
v -2.19669914110086E-02 0.075 6.15165042944954E-02
v -5.30330085889914E-02 0.075 0.123033008588991
v -2.19669914110086E-02 0.075 9.19669914110084E-02
v -9.69669914110086E-02 0.075 0.123033008588991
v 0 0.075 0.07
v -2.19669914110086E-02 0.075 0
v 8.48349570550474E-03 0.075 6.15165042944954E-02
v 5.30330085889914E-02 0.075 1.69669914110093E-02
v 5.30330085889914E-02 0.075 0
v -2.19669914110086E-02 -0.075 0
v -2.19669914110086E-02 -0.075 6.15165042944954E-02
v -9.69669914110086E-02 -0.075 6.15165042944954E-02
v 5.30330085889914E-02 -0.075 0
v 5.30330085889914E-02 -0.075 1.69669914110093E-02
v 8.48349570550474E-03 -0.075 6.15165042944954E-02
v 0 -7.50000000000001E-02 0.07
v -2.19669914110086E-02 -0.075 9.19669914110084E-02
v -5.30330085889914E-02 -0.075 0.123033008588991
v -9.69669914110086E-02 -0.075 0.123033008588991
v -9.69669914110086E-02 -0.075 0
v 5.30330085889914E-02 -8.32667268468867E-17 1.69669914110093E-02
v 5.30330085889914E-02 0.075 1.69669914110093E-02
v 8.48349570550474E-03 0.075 6.15165042944954E-02
v 0 -8.32667268468867E-17 0.07
v -5.30330085889914E-02 0 0.123033008588991
v -2.19669914110086E-02 0.075 9.19669914110084E-02
v 0 0.075 0.07
v 8.48349570550474E-03 -0.075 6.15165042944954E-02
v 0 -7.50000000000001E-02 0.07
v -5.30330085889914E-02 -0.075 0.123033008588991
v -2.19669914110086E-02 -0.075 9.19669914110084E-02
v 5.30330085889914E-02 -0.075 1.69669914110093E-02
v -5.30330085889914E-02 0.075 0.123033008588991
v 5.30330085889914E-02 0.075 0
v 5.30330085889914E-02 0.075 1.69669914110093E-02
v 5.30330085889914E-02 -8.32667268468867E-17 1.69669914110093E-02
v 5.30330085889914E-02 0 0
v 5.30330085889914E-02 -0.075 1.69669914110093E-02
v 5.30330085889914E-02 -0.075 0
v -9.69669914110086E-02 0.075 0
v -2.19669914110086E-02 0.075 0
v -2.19669914110086E-02 0 0
v 5.30330085889914E-02 0.075 0
v 5.30330085889914E-02 0 0
v -9.69669914110086E-02 0 0
v -2.19669914110086E-02 -0.075 0
v 5.30330085889914E-02 -0.075 0
v -9.69669914110086E-02 -0.075 0
# 65 vertices

vn -1 0 2.25594545187059E-16
vn -1 0 2.25594545187059E-16
vn -1 0 2.25594545187059E-16
vn -1 0 2.25594545187059E-16
vn -1 0 2.25594545187059E-16
vn -1 0 2.25594545187059E-16
vn -1 0 2.25594545187059E-16
vn -1 0 2.25594545187059E-16
vn -1 0 2.25594545187059E-16
vn 0 0 1
vn 0 0 1
vn 0 0 1
vn 0 0 1
vn 0 0 1
vn 0 0 1
vn 0 1 0
vn 0 1 0
vn 0 1 0
vn 0 1 0
vn 0 1 0
vn 0 1 0
vn 0 1 0
vn 0 1 0
vn 0 1 0
vn 0 1 0
vn 0 1 0
vn 0 -1 0
vn 0 -1 0
vn 0 -1 0
vn 0 -1 0
vn 0 -1 0
vn 0 -1 0
vn 0 -1 0
vn 0 -1 0
vn 0 -1 0
vn 0 -1 0
vn 0 -1 0
vn 0.707106781186543 0 0.707106781186552
vn 0.707106781186543 0 0.707106781186552
vn 0.707106781186543 0 0.707106781186552
vn 0.707106781186543 0 0.707106781186552
vn 0.707106781186543 0 0.707106781186552
vn 0.707106781186543 0 0.707106781186552
vn 0.707106781186543 0 0.707106781186552
vn 0.707106781186543 0 0.707106781186552
vn 0.707106781186543 0 0.707106781186552
vn 0.707106781186543 0 0.707106781186552
vn 0.707106781186543 0 0.707106781186552
vn 0.707106781186543 0 0.707106781186552
vn 0.707106781186543 0 0.707106781186552
vn 1 0 -4.08964308156885E-16
vn 1 0 -4.08964308156885E-16
vn 1 0 -4.08964308156885E-16
vn 1 0 -4.08964308156885E-16
vn 1 0 -4.08964308156885E-16
vn 1 0 -4.08964308156885E-16
vn 0 0 -1
vn 0 0 -1
vn 0 0 -1
vn 0 0 -1
vn 0 0 -1
vn 0 0 -1
vn 0 0 -1
vn 0 0 -1
vn 0 0 -1
# 65 normals

vt -0.123033008588991 0
vt -6.15165042944954E-02 0
vt -6.15165042944954E-02 -0.075
vt 0 0
vt 0 -0.075
vt -0.123033008588991 -0.075
vt -6.15165042944954E-02 -0.15
vt 0 -0.15
vt -0.123033008588991 -0.15
vt -4.39339828220172E-02 0
vt 0 0
vt 0 -0.075
vt -4.39339828220172E-02 -0.075
vt 0 -0.15
vt -4.39339828220172E-02 -0.15
vt 0 -9.69669914110086E-02
vt 6.15165042944954E-02 -9.69669914110086E-02
vt 6.15165042944954E-02 -2.19669914110086E-02
vt 0.123033008588991 -5.30330085889914E-02
vt 9.19669914110084E-02 -2.19669914110086E-02
vt 0.123033008588991 -9.69669914110086E-02
vt 0.07 0
vt 0 -2.19669914110086E-02
vt 6.15165042944954E-02 8.48349570550474E-03
vt 1.69669914110093E-02 5.30330085889914E-02
vt 0 5.30330085889914E-02
vt 0 -2.19669914110086E-02
vt 6.15165042944954E-02 -2.19669914110086E-02
vt 6.15165042944954E-02 -9.69669914110086E-02
vt 0 5.30330085889914E-02
vt 1.69669914110093E-02 5.30330085889914E-02
vt 6.15165042944954E-02 8.48349570550474E-03
vt 0.07 0
vt 9.19669914110084E-02 -2.19669914110086E-02
vt 0.123033008588991 -5.30330085889914E-02
vt 0.123033008588991 -9.69669914110086E-02
vt 0 -9.69669914110086E-02
vt -0.15 -7.50000000000001E-02
vt -0.15 0
vt -8.69974746830586E-02 0
vt -0.075 -7.50000000000001E-02
vt 0 -7.50000000000001E-02
vt -4.39339828220185E-02 0
vt -0.075 0
vt -8.69974746830586E-02 -0.15
vt -0.075 -0.15
vt 0 -0.15
vt -4.39339828220185E-02 -0.15
vt -0.15 -0.15
vt 0 0
vt -1.69669914110093E-02 0
vt 0 0
vt 0 -0.075
vt -1.69669914110093E-02 -0.075
vt 0 -0.15
vt -1.69669914110093E-02 -0.15
vt 0 0
vt 0.075 0
vt 0.075 -0.075
vt 0.15 0
vt 0.15 -0.075
vt 0 -0.075
vt 0.075 -0.15
vt 0.15 -0.15
vt 0 -0.15
# 65 UVs

g  mesh 1 support
usemtl  1 
f 2/2/2 5/5/5 3/3/3
f 6/6/6 7/7/7 9/9/9
f 3/3/3 8/8/8 7/7/7
f 8/8/8 3/3/3 5/5/5
f 7/7/7 6/6/6 3/3/3
f 5/5/5 2/2/2 4/4/4
f 3/3/3 1/1/1 2/2/2
f 1/1/1 3/3/3 6/6/6
f 14/14/14 13/13/13 12/12/12
f 13/13/13 14/14/14 15/15/15
f 12/12/12 10/10/10 11/11/11
f 10/10/10 12/12/12 13/13/13
f 40/40/40 38/38/38 39/39/39
f 38/38/38 40/40/40 41/41/41
f 43/43/43 42/42/42 41/41/41
f 43/43/43 41/41/41 44/44/44
f 45/45/45 38/38/38 41/41/41
f 45/45/45 41/41/41 46/46/46
f 48/48/48 42/42/42 47/47/47
f 42/42/42 48/48/48 41/41/41
f 41/41/41 48/48/48 46/46/46
f 38/38/38 45/45/45 49/49/49
f 41/41/41 40/40/40 44/44/44
f 42/42/42 43/43/43 50/50/50
f 54/54/54 55/55/55 56/56/56
f 55/55/55 54/54/54 53/53/53
f 53/53/53 51/51/51 52/52/52
f 51/51/51 53/53/53 54/54/54
f 59/59/59 57/57/57 58/58/58
f 61/61/61 58/58/58 60/60/60
f 63/63/63 62/62/62 59/59/59
f 64/64/64 59/59/59 61/61/61
f 59/59/59 64/64/64 63/63/63
f 62/62/62 63/63/63 65/65/65
f 58/58/58 61/61/61 59/59/59
f 57/57/57 59/59/59 62/62/62
f 19/19/19 17/17/17 21/21/21
f 24/24/24 23/23/23 18/18/18
f 25/25/25 23/23/23 24/24/24
f 22/22/22 18/18/18 20/20/20
f 20/20/20 17/17/17 19/19/19
f 18/18/18 16/16/16 17/17/17
f 16/16/16 18/18/18 23/23/23
f 17/17/17 20/20/20 18/18/18
f 18/18/18 22/22/22 24/24/24
f 23/23/23 25/25/25 26/26/26
f 28/28/28 33/33/33 34/34/34
f 27/27/27 29/29/29 37/37/37
f 29/29/29 27/27/27 28/28/28
f 31/31/31 27/27/27 30/30/30
f 29/29/29 35/35/35 36/36/36
f 27/27/27 31/31/31 32/32/32
f 33/33/33 28/28/28 32/32/32
f 34/34/34 29/29/29 28/28/28
f 27/27/27 32/32/32 28/28/28
f 29/29/29 34/34/34 35/35/35

